<svg class="site-header__logo" width="923" height="221" viewBox="0 0 923 221" fill="#181A25" xmlns="http://www.w3.org/2000/svg">
  <path d="M51.1 51.1C78.3 23.9 119.5 19.3 151.5 37.2C156.6 40.1 163.1 39.1 167.2 35C173.4 28.8 172.1 18.4 164.4 14.1C122.4 -9.49995 68.2 -3.39995 32.4 32.4C-3.39995 68.2 -9.49995 122.4 14.1 164.5C18.4 172.1 28.8 173.4 35 167.3C39.2 163.1 40.1 156.7 37.2 151.6C19.3 119.6 23.9 78.3 51.1 51.1Z" fill="#40DBB7"></path>
  <path d="M188.7 188.7C224.5 152.9 230.6 98.7 207 56.6C202.7 49 192.3 47.7 186.1 53.8C181.9 58 181 64.4 183.9 69.5C201.8 101.5 197.2 142.7 170 169.9C142.8 197.1 101.5 201.7 69.6 183.8C64.5 180.9 58 181.9 53.9 186C47.7 192.2 49 202.6 56.7 206.9C98.6001 230.6 152.9 224.5 188.7 188.7Z" fill="#40DBB7"></path>
  <path d="M110.5 46.4C75.1 46.4 46.4 75.1 46.4 110.5C46.4 145.9 75.1 174.6 110.5 174.6C145.9 174.6 174.6 145.9 174.6 110.5C174.6 75.1 145.9 46.4 110.5 46.4ZM110.5 71C132.3 71 150 88.7 150 110.5C150 132.3 132.3 150 110.5 150C88.7 150 71 132.3 71 110.5C71 88.7 88.7 71 110.5 71Z" fill="#40DBB7"></path>
  
</svg>